<svg id="Capa_1" enable-background="new 0 0 512.001 512.001" height="50" viewBox="0 0 512.001 512.001" width="50" xmlns="http://www.w3.org/2000/svg"><path d="m267.211.251c-3.72-.17-7.45-.25-11.21-.25-141.38 0-256 114.62-256 256s114.62 256 256 256c2.93 0 5.84-.05 8.75-.15h.02c137.32-4.62 247.23-117.4 247.23-255.85 0-137.62-108.61-249.89-244.79-255.75zm150.65 151.24c4.24-.57 8.12 2.41 8.68 6.64.55 4.23-2.42 8.11-6.65 8.68-.34.04-.68.06-1.02.06-3.82 0-7.14-2.83-7.65-6.71-.56-4.23 2.41-8.12 6.64-8.67zm-20.08-91.29c4.2-.8 8.24 1.95 9.05 6.13.81 4.2-1.94 8.24-6.13 9.05-.49.1-.98.14-1.46.14-3.63 0-6.88-2.57-7.59-6.26-.8-4.19 1.94-8.24 6.13-9.06zm-8.65 98.17c4.03-1.4 8.44.74 9.83 4.77 1.4 4.03-.74 8.43-4.77 9.83-.84.28-1.69.42-2.54.42-3.19 0-6.19-2-7.29-5.19-1.4-4.04.73-8.44 4.77-9.83zm-19.73-89.16c3.88-1.77 8.47-.04 10.23 3.84 1.76 3.89.04 8.47-3.85 10.23-1.03.47-2.11.69-3.19.69-2.93 0-5.74-1.68-7.03-4.53-1.76-3.9-.04-8.47 3.84-10.23zm-25.48 15.34c3.39-2.6 8.24-1.96 10.84 1.42s1.97 8.23-1.42 10.82c-1.4 1.09-3.06 1.61-4.7 1.61-2.32 0-4.61-1.04-6.14-3.02-2.59-3.39-1.95-8.23 1.42-10.83zm16.6 333.31c.56 4.24-2.42 8.12-6.64 8.68-.35.05-.69.07-1.03.07-3.82 0-7.14-2.84-7.65-6.72-.56-4.23 2.41-8.12 6.65-8.67 4.22-.56 8.1 2.41 8.67 6.64zm-79.62-402.32c3.22-2.79 8.1-2.44 10.89.79 2.79 3.22 2.44 8.1-.79 10.9-1.46 1.26-3.25 1.88-5.04 1.88-2.17 0-4.32-.9-5.85-2.67-2.8-3.22-2.45-8.1.79-10.9zm-9.3 20.21c3.46 2.48 4.26 7.31 1.78 10.78-1.52 2.1-3.89 3.23-6.3 3.23-1.55 0-3.12-.48-4.49-1.45-3.47-2.48-4.26-7.31-1.78-10.78s7.31-4.27 10.79-1.78zm-64.91 347.57c-1.44 2.42-4 3.76-6.62 3.76-1.36 0-2.73-.35-3.97-1.1-3.66-2.2-4.85-6.94-2.65-10.6 2.19-3.66 6.94-4.85 10.6-2.65 3.65 2.19 4.84 6.93 2.64 10.59zm-17.17 23.81c-1.53 1.76-3.68 2.66-5.84 2.66-1.79 0-3.6-.61-5.06-1.88-3.22-2.79-3.57-7.68-.78-10.9s7.67-3.57 10.9-.78c3.22 2.79 3.57 7.67.78 10.9zm-21.45 20.32c-1.4 1.08-3.06 1.6-4.69 1.6-2.32 0-4.62-1.03-6.14-3.02-2.6-3.38-1.96-8.23 1.42-10.83 3.39-2.6 8.23-1.96 10.83 1.41 2.6 3.39 1.96 8.25-1.42 10.84zm-22.18-84.86c-2.71 0-5.34-1.44-6.75-3.97-2.08-3.74-.74-8.44 2.99-10.51 3.73-2.08 8.44-.73 10.51 3s.73 8.44-3 10.51c-1.18.66-2.47.97-3.75.97zm-3.29 100.2c-1.03.48-2.13.69-3.19.69-2.93 0-5.75-1.68-7.04-4.53-1.76-3.89-.03-8.47 3.85-10.23s8.46-.04 10.22 3.85c1.77 3.89.04 8.46-3.84 10.22zm-21.39-165.83h-.12c-4.27-.06-7.68-3.58-7.61-7.85.08-4.26 3.59-7.66 7.85-7.59 4.28.06 7.68 3.59 7.61 7.85-.08 4.22-3.52 7.59-7.73 7.59zm1.66 76.67c-.84.3-1.69.43-2.54.43-3.19 0-6.19-2.01-7.29-5.2-1.4-4.03.74-8.43 4.77-9.83 4.04-1.39 8.44.74 9.83 4.77 1.4 4.04-.74 8.44-4.77 9.83zm120.01-240.15c4.27.08 7.67 3.59 7.61 7.85-.08 4.23-3.52 7.61-7.73 7.61h-.12c-4.28-.08-7.68-3.59-7.61-7.85.08-4.27 3.59-7.68 7.85-7.61zm2.72-12.41c-.48 0-.96-.05-1.46-.14-4.19-.81-6.93-4.86-6.13-9.05.81-4.19 4.86-6.93 9.05-6.13 4.19.82 6.93 4.86 6.13 9.06-.71 3.68-3.95 6.26-7.59 6.26zm5.01-27.42c-3.94-1.63-5.82-6.15-4.19-10.1 1.63-3.93 6.15-5.81 10.09-4.18 3.95 1.63 5.82 6.15 4.19 10.08-1.23 2.99-4.1 4.78-7.14 4.78-.98 0-1.99-.18-2.95-.58zm-157.26 200.48c-.48 0-.97-.05-1.47-.14-4.19-.81-6.93-4.86-6.13-9.05.81-4.19 4.86-6.93 9.06-6.13 4.18.82 6.93 4.86 6.12 9.06-.72 3.68-3.95 6.26-7.58 6.26zm.79 86.39c-.34.04-.68.06-1.02.06-3.83 0-7.14-2.82-7.66-6.7-.55-4.24 2.41-8.12 6.65-8.68 4.23-.56 8.12 2.41 8.67 6.65.56 4.22-2.41 8.1-6.64 8.67zm-27.63-94.35c-.99 0-1.99-.19-2.96-.59-3.93-1.63-5.82-6.15-4.18-10.1 1.63-3.93 6.15-5.81 10.08-4.18 3.95 1.63 5.82 6.15 4.2 10.09-1.24 2.97-4.11 4.78-7.14 4.78zm6.33 87.96c-.39 3.99-3.75 6.98-7.67 6.98-.26 0-.52-.02-.76-.04 0 0 0 0-.01 0-4.25-.43-7.35-4.21-6.94-8.45.42-4.24 4.21-7.35 8.45-6.93s7.36 4.2 6.93 8.44zm-37.09-113.73c2.48-3.46 7.31-4.26 10.78-1.77 3.46 2.48 4.27 7.3 1.78 10.78-1.51 2.1-3.88 3.22-6.29 3.22-1.56 0-3.13-.46-4.49-1.44-3.47-2.48-4.27-7.32-1.78-10.79zm-9.31-8.51c-1.46 1.27-3.26 1.89-5.05 1.89-2.17 0-4.32-.91-5.85-2.67-2.79-3.22-2.44-8.11.79-10.9 3.22-2.79 8.1-2.44 10.9.78 2.79 3.23 2.44 8.11-.79 10.9zm18.7 118.01c-1.1 3.19-4.1 5.19-7.3 5.19-.84 0-1.69-.13-2.53-.42-4.03-1.4-6.17-5.8-4.77-9.84 1.39-4.03 5.8-6.16 9.83-4.77 4.03 1.4 6.17 5.8 4.77 9.84zm69.07 101.9c-.49.09-.98.13-1.47.13-3.62 0-6.86-2.57-7.57-6.26-.52-2.75.47-5.43 2.39-7.18 1.01-.92 2.29-1.59 3.74-1.87 4.19-.8 8.24 1.94 9.04 6.13.44 2.28-.17 4.52-1.51 6.22-1.1 1.42-2.71 2.46-4.62 2.83zm106.78 32.97c3.23-2.79 8.11-2.44 10.9.78 2.79 3.23 2.44 8.11-.78 10.9-1.46 1.27-3.27 1.89-5.06 1.89-2.16 0-4.32-.91-5.84-2.67-2.79-3.22-2.44-8.11.78-10.9zm17.64-19.29c2.48-3.48 7.3-4.28 10.78-1.79 3.47 2.49 4.26 7.31 1.78 10.78-1.51 2.1-3.89 3.22-6.29 3.22-1.56 0-3.13-.46-4.49-1.44-3.47-2.48-4.27-7.31-1.78-10.77zm26.95-17.03c-1.24 2.97-4.11 4.77-7.14 4.77-.99 0-1.99-.19-2.96-.59-3.93-1.63-5.82-6.15-4.18-10.09 1.63-3.94 6.15-5.82 10.09-4.19s5.82 6.15 4.19 10.1zm8.41-28.33c-.71 3.7-3.95 6.26-7.59 6.26-.48 0-.96-.04-1.46-.13-4.19-.81-6.93-4.87-6.13-9.05.82-4.19 4.86-6.93 9.05-6.13 4.19.81 6.93 4.85 6.13 9.05zm2.97-29.2c-.06 4.22-3.51 7.59-7.71 7.59h-.14c-4.26-.07-7.66-3.58-7.6-7.85h.01c.06-4.26 3.59-7.66 7.85-7.6 4.27.07 7.67 3.59 7.59 7.85zm-20.96-92.96c-23.18 0-41.96-18.78-41.96-41.96s18.78-41.96 41.96-41.96 41.96 18.78 41.96 41.96-18.78 41.96-41.96 41.96zm62.55-161.34c-1.44 2.41-4.01 3.75-6.63 3.75-1.35 0-2.72-.35-3.97-1.09-3.66-2.2-4.84-6.94-2.65-10.6 2.2-3.67 6.94-4.85 10.6-2.66 3.66 2.2 4.85 6.94 2.65 10.6zm3.93-31.75c2.8-3.22 7.67-3.57 10.9-.78 3.23 2.8 3.57 7.67.78 10.9-1.53 1.77-3.68 2.67-5.84 2.67-1.79 0-3.6-.62-5.06-1.89-3.23-2.79-3.58-7.67-.78-10.9zm5.63 264.99c-2.07-3.72-.73-8.43 3-10.5s8.44-.73 10.51 2.99c2.07 3.73.73 8.44-3 10.51-1.2.66-2.48.98-3.75.98-2.71 0-5.35-1.43-6.76-3.98zm15.69 14.5c4.04-1.4 8.44.74 9.84 4.77 1.39 4.03-.74 8.44-4.78 9.83-.84.29-1.69.43-2.52.43-3.21 0-6.2-2.01-7.31-5.2-1.39-4.04.74-8.44 4.77-9.83zm10.87 92.32c-1.11 3.2-4.1 5.21-7.3 5.21-.84 0-1.69-.14-2.54-.44-4.03-1.39-6.16-5.8-4.77-9.82 1.4-4.03 5.8-6.17 9.84-4.77 4.03 1.4 6.16 5.8 4.77 9.82zm6.4-29.08c-.39 3.99-3.75 6.97-7.69 6.97-.25 0-.5-.01-.76-.03-4.24-.43-7.35-4.21-6.93-8.45.42-4.25 4.2-7.36 8.44-6.94 4.25.42 7.35 4.2 6.94 8.45zm5.04-262.74c-2.7 0-5.34-1.43-6.75-3.97-2.07-3.73-.73-8.43 2.99-10.51 3.73-2.07 8.44-.72 10.51 3.01s.73 8.43-3 10.5c-1.18.67-2.47.97-3.75.97zm19.87 131.04c-1.45 2.41-4.01 3.75-6.64 3.75-1.35 0-2.72-.35-3.96-1.1-3.66-2.19-4.85-6.93-2.65-10.6 2.19-3.66 6.93-4.84 10.59-2.65h.01c3.66 2.2 4.84 6.94 2.65 10.6zm4.68-65.41c-4.26-.07-7.66-3.59-7.6-7.86.07-4.27 3.59-7.67 7.86-7.6 4.27.08 7.67 3.59 7.59 7.85-.07 4.23-3.51 7.61-7.72 7.61zm17.25 82.89c-1.54 1.77-3.69 2.66-5.85 2.66-1.79 0-3.59-.61-5.05-1.88-3.22-2.79-3.57-7.68-.78-10.9 2.79-3.23 7.67-3.58 10.9-.77 3.22 2.79 3.57 7.66.78 10.89zm3.16-89.24c.81-4.19 4.85-6.93 9.05-6.13 4.19.81 6.93 4.86 6.13 9.05-.71 3.69-3.96 6.27-7.59 6.27-.48 0-.97-.05-1.46-.14-4.19-.81-6.93-4.87-6.13-9.05zm14.96 110.62c-1.4 1.07-3.06 1.6-4.7 1.6-2.32 0-4.61-1.04-6.13-3.02-2.6-3.38-1.96-8.23 1.41-10.84 3.39-2.59 8.25-1.95 10.84 1.42 2.6 3.39 1.97 8.24-1.42 10.84zm2.69 21.03c-1.76-3.9-.04-8.47 3.85-10.23s8.46-.04 10.22 3.84c1.76 3.89.04 8.47-3.84 10.23-1.04.46-2.12.69-3.18.69-2.95 0-5.75-1.69-7.05-4.53zm16.95 31.04c-.5.1-.99.14-1.48.14-3.62 0-6.86-2.57-7.57-6.26v-.01c-.8-4.18 1.94-8.23 6.13-9.05 4.19-.8 8.24 1.94 9.05 6.13.8 4.2-1.94 8.24-6.13 9.05zm6.96-150.32c-1.23 2.98-4.1 4.78-7.14 4.77-.98 0-1.99-.18-2.95-.58v.01c-3.94-1.64-5.82-6.15-4.19-10.1 1.63-3.94 6.15-5.82 10.1-4.19 3.94 1.63 5.82 6.15 4.18 10.09zm1.91-97.13c-.4 3.99-3.76 6.97-7.69 6.97-.25 0-.5-.02-.76-.04-4.25-.42-7.36-4.2-6.94-8.45.42-4.24 4.2-7.34 8.45-6.93s7.35 4.2 6.94 8.45zm21.71 112.22c-1.5 2.1-3.88 3.22-6.28 3.22-1.56 0-3.13-.47-4.49-1.44-3.48-2.5-4.28-7.32-1.79-10.79s7.31-4.26 10.78-1.78 4.26 7.31 1.78 10.79zm5.2-104.43c-1.1 3.19-4.09 5.19-7.29 5.19-.84 0-1.69-.14-2.53-.43-4.03-1.39-6.17-5.79-4.77-9.83 1.4-4.03 5.8-6.16 9.82-4.77 4.04 1.4 6.18 5.8 4.77 9.84zm14.22 124.62c-1.46 1.26-3.27 1.88-5.06 1.88-2.16 0-4.31-.89-5.84-2.67-2.79-3.22-2.44-8.09.78-10.89 3.23-2.8 8.11-2.45 10.9.79 2.79 3.22 2.44 8.1-.78 10.89z" fill="#e2dfe2"/><path d="m267.171.261c.01 0 .03-.01.04-.01-3.72-.17-7.45-.25-11.21-.25-141.38 0-256 114.62-256 256s114.62 256 256 256c2.93 0 5.84-.05 8.75-.15-55.49-5.03-106.1-27.93-145.92-62.88-1.1 1.42-2.71 2.46-4.62 2.83-.49.09-.98.13-1.47.13-3.62 0-6.86-2.57-7.57-6.26-.52-2.75.47-5.43 2.39-7.18-47.23-46.64-76.63-111.3-76.63-182.49 0-131.66 108.39-241.45 236.24-255.74zm-240.73 231.63c-1.46 1.27-3.26 1.89-5.05 1.89-2.17 0-4.32-.91-5.85-2.67-2.79-3.22-2.44-8.11.79-10.9 3.22-2.79 8.1-2.44 10.9.78 2.79 3.23 2.44 8.11-.79 10.9zm13.93 108.17c4.03 1.4 6.17 5.8 4.77 9.84-1.1 3.19-4.1 5.19-7.3 5.19-.84 0-1.69-.13-2.53-.42-4.03-1.4-6.17-5.8-4.77-9.84 1.39-4.03 5.8-6.16 9.83-4.77z" fill="#cbcbcb"/><path d="m256.001 148.543c-59.348 0-107.458 48.109-107.458 107.458s48.109 107.458 107.458 107.458 107.458-48.109 107.458-107.458-48.11-107.458-107.458-107.458zm-4.901 25.422c5.354-4.373 13.58.277 12.539 7.108-.57 3.736-3.844 6.595-7.639 6.595-7.079 0-10.396-9.214-4.9-13.703zm-38.147 10.291c5.317-4.549 13.657.09 12.656 7.009-.542 3.745-3.872 6.591-7.644 6.591-7.015 0-10.358-9.026-5.012-13.6zm-28.055 28.03c5.03-4.619 13.456-.583 12.934 6.25-.304 3.982-3.694 7.156-7.702 7.156-6.872 0-10.306-8.746-5.232-13.406zm-4.957 51.44c-3.267 0-6.241-2.133-7.303-5.215-1.073-3.112.008-6.682 2.637-8.667 5.684-4.29 13.926 1.114 12.153 8.056-.863 3.378-3.996 5.826-7.487 5.826zm17.808 31.58c-.622 3.666-3.887 6.455-7.619 6.455-6.866 0-10.318-8.746-5.232-13.416 2.291-2.103 5.724-2.621 8.533-1.296 3.083 1.455 4.889 4.889 4.318 8.257zm27.798 28.078c-.705 3.575-3.95 6.212-7.583 6.212-3.169 0-6.051-2.001-7.197-4.945-1.232-3.164-.178-6.894 2.541-8.936 5.544-4.164 13.591.815 12.239 7.669zm38.058 10.001c-.642 3.658-3.88 6.399-7.605 6.399-6.948 0-10.336-8.896-5.131-13.499 5.357-4.735 13.973.055 12.736 7.1zm-7.604-35.425c-23.179 0-41.959-18.78-41.959-41.959s18.78-41.959 41.959-41.959 41.959 18.78 41.959 41.959-18.78 41.959-41.959 41.959zm45.672 25.045c-.571 3.738-3.848 6.591-7.639 6.591-3.095 0-5.949-1.916-7.139-4.77-1.315-3.153-.324-6.952 2.383-9.043 5.36-4.14 13.433.427 12.395 7.222zm0-131.739c-.572 3.735-3.849 6.591-7.639 6.591-3.093 0-5.951-1.916-7.139-4.77-1.316-3.159-.322-6.946 2.383-9.046 5.356-4.158 13.434.438 12.395 7.225zm14.872 21.11c2.498-2.372 6.341-2.781 9.298-1.03 2.607 1.544 4.049 4.575 3.693 7.569-.454 3.814-3.824 6.786-7.666 6.786-6.839.001-10.258-8.641-5.325-13.325zm12.937 82.976c-.628 3.653-3.903 6.409-7.613 6.409-6.825 0-10.26-8.621-5.324-13.326 2.39-2.278 6.057-2.758 8.966-1.215 2.915 1.545 4.529 4.887 3.971 8.132zm2.576-31.626c-6.84 0-10.324-8.75-5.231-13.406 5.114-4.675 13.58-.5 12.92 6.436-.372 3.907-3.773 6.97-7.689 6.97z" fill="#544f57"/><path d="m256.001 305.69c-27.399 0-49.689-22.29-49.689-49.689s22.29-49.689 49.689-49.689 49.689 22.29 49.689 49.689-22.29 49.689-49.689 49.689zm0-83.926c-18.878 0-34.236 15.358-34.236 34.236s15.358 34.236 34.236 34.236 34.236-15.358 34.236-34.236-15.358-34.236-34.236-34.236z" fill="#665e66"/><path d="m210.271 107.321-102.95 102.95c-9.46 9.46-24.17 11.2-35.57 4.2l-60.59-37.2c-12.89-7.91-15-25.79-4.31-36.48l5.93-5.92-1.7-1.71c-7.7-7.7-7.7-20.18 0-27.88l94.2-94.2c7.7-7.7 20.18-7.7 27.88 0l1.71 1.7 5.92-5.93c10.69-10.69 28.57-8.58 36.48 4.31l37.2 60.59c7 11.4 5.26 26.11-4.2 35.57z" fill="#da4a54"/><circle cx="143.484" cy="75.258" fill="#6bbcd5" r="16.444"/><circle cx="75.258" cy="143.484" fill="#6bbcd5" r="16.444"/><path d="m143.484 99.429c-13.327 0-24.17-10.843-24.17-24.17s10.843-24.17 24.17-24.17 24.17 10.843 24.17 24.17-10.842 24.17-24.17 24.17zm0-32.888c-4.807 0-8.717 3.91-8.717 8.717s3.91 8.717 8.717 8.717 8.717-3.91 8.717-8.717-3.91-8.717-8.717-8.717z" fill="#c32430"/><path d="m75.259 167.654c-13.327 0-24.17-10.843-24.17-24.17s10.843-24.17 24.17-24.17 24.17 10.843 24.17 24.17-10.843 24.17-24.17 24.17zm0-32.887c-4.807 0-8.717 3.91-8.717 8.717s3.91 8.717 8.717 8.717c4.806 0 8.717-3.91 8.717-8.717s-3.911-8.717-8.717-8.717z" fill="#c32430"/><path d="m256.001 371.184c-63.512 0-115.183-51.671-115.183-115.183s51.671-115.183 115.183-115.183 115.183 51.671 115.183 115.183-51.671 115.183-115.183 115.183zm0-214.913c-54.991 0-99.73 44.738-99.73 99.73s44.738 99.73 99.73 99.73 99.73-44.739 99.73-99.73-44.739-99.73-99.73-99.73z" fill="#665e66"/><path d="m177.271 11.161c-140.34 42.66-166.11 166.11-166.11 166.11-12.89-7.91-15-25.79-4.31-36.48l5.93-5.92-1.7-1.71c-7.7-7.7-7.7-20.18 0-27.88l94.2-94.2c7.7-7.7 20.18-7.7 27.88 0l1.71 1.7 5.92-5.93c10.69-10.69 28.57-8.58 36.48 4.31z" fill="#c32430"/></svg>