<svg height="50" viewBox="0 0 192 192" width="50" xmlns="http://www.w3.org/2000/svg"><path d="m145.9 191.684a7.965 7.965 0 0 0 5.138-1.872l36.771-30.854a8 8 0 0 0 .986-11.27l-15.569-18.514-49.026 41.138 15.569 18.514a7.981 7.981 0 0 0 6.131 2.858z"/><path d="m157.681 131.106-19.875-23.783a8 8 0 0 0 -11.271-.987l-20.923 17.557a8 8 0 0 0 -.987 11.271l19.875 23.782z"/><path d="m46.1 191.684a7.965 7.965 0 0 1 -5.138-1.872l-36.774-30.854a8 8 0 0 1 -.986-11.27l15.569-18.514 49.029 41.138-15.571 18.514a7.981 7.981 0 0 1 -6.129 2.858z"/><path d="m34.319 131.106 19.875-23.783a8 8 0 0 1 11.271-.987l20.923 17.557a8 8 0 0 1 .987 11.271l-19.875 23.782z"/><path d="m96 136.223a16.041 16.041 0 0 1 -2.5 4.083l-14.079 16.782a37.087 37.087 0 0 0 33.158 0l-14.079-16.782a16.041 16.041 0 0 1 -2.5-4.083z"/><path d="m96 0c-41.72 0-72 27.336-72 65 0 13.521 5.583 31.511 14.7 48.342l9.366-11.161a15.9 15.9 0 0 1 10.862-5.656c.468-.04.931-.06 1.393-.06a16.03 16.03 0 0 1 10.288 3.744l20.921 17.556a15.911 15.911 0 0 1 4.47 6.071 15.911 15.911 0 0 1 4.47-6.071l20.923-17.557a16.025 16.025 0 0 1 10.286-3.743q.693 0 1.389.06a15.9 15.9 0 0 1 10.867 5.656l9.365 11.161c9.117-16.831 14.7-34.821 14.7-48.342 0-37.664-30.28-65-72-65zm-32 88a24 24 0 1 1 24-24 24.027 24.027 0 0 1 -24 24zm64 0a24 24 0 1 1 24-24 24.027 24.027 0 0 1 -24 24z"/></svg>