<svg id="Capa_1" enable-background="new 0 0 512 512" height="50" viewBox="0 0 512 512" width="50" xmlns="http://www.w3.org/2000/svg"><path d="m437.02 74.98c-48.353-48.351-112.64-74.98-181.02-74.98s-132.667 26.629-181.02 74.98c-48.351 48.353-74.98 112.64-74.98 181.02s26.629 132.667 74.98 181.02c48.353 48.351 112.64 74.98 181.02 74.98s132.667-26.629 181.02-74.98c48.351-48.353 74.98-112.64 74.98-181.02s-26.629-132.667-74.98-181.02zm-21.214 340.826c-42.686 42.686-99.439 66.194-159.806 66.194s-117.12-23.508-159.806-66.194-66.194-99.439-66.194-159.806 23.508-117.12 66.194-159.806 99.439-66.194 159.806-66.194 117.12 23.508 159.806 66.194 66.194 99.439 66.194 159.806-23.508 117.12-66.194 159.806z"/><path d="m256 51.699c-112.651 0-204.301 91.649-204.301 204.301s91.65 204.301 204.301 204.301 204.301-91.649 204.301-204.301-91.65-204.301-204.301-204.301zm0 378.602c-96.109 0-174.301-78.191-174.301-174.301s78.192-174.301 174.301-174.301 174.301 78.191 174.301 174.301-78.192 174.301-174.301 174.301z"/><path d="m329.062 216.583c13.132-29.422 7.645-65.204-16.461-89.31-5.857-5.858-15.355-5.858-21.213 0s-5.858 15.355 0 21.213c11.823 11.824 16.482 28.14 13.977 43.505-13.609-10.692-30.756-17.076-49.365-17.076s-35.756 6.383-49.365 17.075c-2.505-15.365 2.154-31.681 13.977-43.504 5.858-5.858 5.858-15.355 0-21.213-5.857-5.858-15.355-5.858-21.213 0-15.119 15.119-23.445 35.22-23.445 56.601 0 11.462 2.393 22.557 6.943 32.713-40.369 4.053-71.99 38.225-71.99 79.644 0 8.284 6.716 15 15 15s15-6.716 15-15c0-22.47 14.886-41.529 35.314-47.833-.177 2.165-.267 4.354-.267 6.564 0 34.264 21.64 63.569 51.971 74.966-9.159 10.041-22.342 16.351-36.971 16.351-8.284 0-15 6.716-15 15s6.716 15 15 15c26.766 0 50.505-13.205 65.046-33.443 14.541 20.238 38.281 33.443 65.047 33.443 8.284 0 15-6.716 15-15s-6.716-15-15-15c-14.63 0-27.813-6.31-36.972-16.351 30.331-11.396 51.972-40.701 51.972-74.965 0-2.21-.09-4.399-.267-6.564 20.428 6.305 35.314 25.363 35.314 47.833 0 8.284 6.716 15 15 15s15-6.716 15-15c0-41.434-31.643-75.616-72.032-79.649zm-37.847 2.851c-2.118 2.098-4.378 3.968-6.75 5.609-2.349 1.212-4.63 2.537-6.838 3.967-13.632 6.516-29.625 6.515-43.256-.002-2.206-1.429-4.486-2.753-6.833-3.964-2.373-1.642-4.633-3.512-6.752-5.611 9.049-8.97 21.495-14.519 35.214-14.519 13.719.001 26.165 5.55 35.215 14.52zm-85.261 35.527c0-2.152.136-4.272.401-6.353 2.082.675 4.104 1.483 6.058 2.414 2.266 1.471 4.59 2.816 6.963 4.035 13.056 9.042 21.624 24.126 21.624 41.174 0 2.151-.136 4.272-.401 6.353-20.084-6.511-34.645-25.398-34.645-47.623zm65.447 47.622c-.265-2.081-.401-4.201-.401-6.353 0-17.048 8.568-32.131 21.624-41.172 2.374-1.219 4.699-2.565 6.965-4.036 1.953-.931 3.975-1.739 6.057-2.414.265 2.081.401 4.201.401 6.353 0 22.225-14.562 41.112-34.646 47.622z"/></svg>