<svg id="Layer_1" enable-background="new 0 0 256 256" height="50" viewBox="0 0 256 256" width="50" xmlns="http://www.w3.org/2000/svg"><path d="m163.82 231.765h-138.73v-19.505c0-17.878 14.493-32.37 32.37-32.37h73.989c17.878 0 32.37 14.493 32.37 32.37v19.505z" fill="#6bdddd"/><path d="m154.974 95.046c-.128 0-.252.016-.38.019v-5.623c0-32.87-26.925-59.516-60.139-59.516-33.214 0-60.139 26.646-60.139 59.516v5.623c-.128-.003-.252-.019-.38-.019-10.133 0-18.348 8.129-18.348 18.157s8.215 18.157 18.348 18.157c.666 0 1.321-.039 1.969-.108 6.206 26.33 30.055 45.949 58.551 45.949 28.496 0 52.345-19.62 58.551-45.949.647.068 1.303.108 1.969.108 10.133 0 18.348-8.129 18.348-18.157-.002-10.028-8.217-18.157-18.35-18.157z" fill="#f9cfcf"/><path d="m94.455 179.202c-28.458 0-52.925-18.766-60.086-45.846-11.394.269-20.781-8.895-20.781-20.152 0-10.575 8.263-19.274 18.728-20.094v-3.667c0-33.92 27.875-61.516 62.139-61.516s62.139 27.596 62.139 61.516v3.667c10.465.82 18.728 9.519 18.728 20.094 0 11.257-9.355 20.422-20.78 20.152-7.163 27.08-31.63 45.846-60.087 45.846zm-58.549-49.949c.918 0 1.73.63 1.945 1.541 6.163 26.147 29.439 44.408 56.604 44.408s50.441-18.261 56.604-44.408c.231-.98 1.159-1.639 2.157-1.53.617.065 1.192.097 1.758.097 9.014 0 16.348-7.248 16.348-16.157 0-8.907-7.329-16.153-16.339-16.158-.165.011-.257.017-.35.019-.521.021-1.055-.195-1.438-.572-.384-.376-.6-.891-.6-1.428v-5.623c0-31.714-26.081-57.516-58.139-57.516s-58.14 25.802-58.14 57.516v5.623c0 .537-.216 1.052-.599 1.428s-.894.594-1.439.572c-.094-.001-.187-.007-.279-.014-.003 0-.006 0-.009 0-9.074 0-16.402 7.247-16.402 16.153 0 8.909 7.333 16.157 16.348 16.157.566 0 1.142-.032 1.759-.097.07-.008.141-.011.211-.011z" fill="#3762cc"/><path d="m105.889 151.016c-1.104 0-2-.896-2-2 0-1.448-.629-2.846-1.818-4.043-1.051-1.059-2.487-1.886-4.153-2.392-1-.304-2.136-.452-3.47-.452s-2.47.148-3.471.452c-1.665.506-3.101 1.333-4.152 2.392-1.19 1.198-1.819 2.596-1.819 4.043 0 1.104-.896 2-2 2s-2-.896-2-2c0-2.49 1.059-4.927 2.981-6.862 1.516-1.526 3.531-2.702 5.827-3.4 1.385-.42 2.901-.625 4.634-.625 1.734 0 3.25.204 4.633.625 2.297.698 4.312 1.874 5.828 3.4 1.922 1.935 2.98 4.372 2.98 6.862 0 1.104-.895 2-2 2z" fill="#3762cc"/><path d="m14.557 73.978c-2.721-7.287-2.915-15.277-.549-22.687l.203-.637c3.87-12.122 14.066-21.153 26.567-23.531 5.9-1.122 11.991-.694 17.676 1.244l.664.227c.038.344.096.69.181 1.034 2.73 11.158 7.741 21.442 14.55 30.279-5.909 16.464-13.139 25.85-18.651 31.046v.001l-7.234 7.343-14.028-3.252c-3.833 0-7.389 1.166-10.332 3.155z" fill="#4671c6"/><path d="m94.455 179.203c-29.03 0-53.907-19.529-60.498-47.491-.14-.595 0-1.221.379-1.7s.957-.759 1.568-.759h117.102c.611 0 1.188.279 1.568.759.379.479.519 1.105.379 1.7-6.591 27.962-31.469 47.491-60.498 47.491zm-55.968-45.95c7.004 24.825 29.663 41.95 55.968 41.95 26.304 0 48.963-17.125 55.968-41.95z" fill="#3762cc"/><path d="m51.595 159.412c10.905 10.978 26.074 17.79 42.86 17.79 16.778 0 31.941-6.807 42.845-17.776v-28.174h-85.705z" fill="#e0ebfc"/><g fill="#f9a7a7"><circle cx="46.964" cy="109.687" r="3.857"/><circle cx="105.889" cy="117.767" r="3.857"/><circle cx="125.165" cy="89.332" r="3.857"/><circle cx="133.021" cy="90.903" r="2.786"/><circle cx="39.761" cy="121.624" r="3.857"/><path d="m99.423 78.208c-2.234-1.54-4.777-2.199-7.265-2.099-.883.035-1.726-.307-2.347-.936-2.798-2.832-6.942-4.254-11.03-3.408-4.384.907-7.681 4.072-8.984 8.006-.597 1.803-1.814 3.335-3.342 4.463-.877.647-1.744 1.726-2.578 3.526-.463.998-.64 2.137-.392 3.209.783 3.387 4.168 5.492 7.551 4.698.318-.075.624-.172.918-.291 1.814-.734 3.841-.907 5.709-.323.703.22 1.43.375 2.171.462 2.071.242 3.988 1.105 5.67 2.337.236.173.481.339.735.496 5.776 3.581 13.401 1.682 16.802-4.27 3.057-5.353 1.458-12.371-3.618-15.87z"/></g><path d="m165.725 49.023c-4.719-14.641-15.496-26.274-29.275-32.01l.001-.008c-48.44-23.845-74.933 4.923-74.933 4.923-1.994 1.919-2.919 4.837-2.218 7.7 5.56 22.732 20.543 41.87 41.046 52.432l.029.015c4.426 2.28 9.048 4.142 13.807 5.562 1.184.353 2.138-1.017 1.421-2.041l-9.96-14.213c-.868-1.239.657-2.751 1.841-1.824 11.013 8.624 32.412 22.911 54.057 23.628l3.525-9.653c4.052-11.093 4.284-23.263.659-34.511z" fill="#4671c6"/><circle cx="145.198" cy="109.687" fill="#f9a7a7" r="3.857"/><path d="m47.963 100.298c-.15 0-.302-.017-.452-.052l-13.799-3.199c-3.224.042-6.328 1.012-8.99 2.811-.508.343-1.146.435-1.729.248-.584-.187-1.05-.631-1.264-1.205l-9.046-24.223c-2.865-7.672-3.072-16.194-.581-23.996l.203-.636c4.098-12.834 14.865-22.371 28.099-24.888 6.228-1.184 12.692-.729 18.695 1.316l.665.227c.733.25 1.255.9 1.342 1.67.031.276.077.54.136.783 2.644 10.807 7.419 20.743 14.191 29.533.416.54.528 1.255.298 1.896-6.169 17.19-13.825 26.795-19.161 31.826l-7.182 7.292c-.38.387-.895.597-1.425.597zm-14.027-7.252c.152 0 .304.018.452.052l12.937 3 6.448-6.545c4.965-4.684 11.993-13.5 17.824-29.303-6.76-9.013-11.548-19.147-14.238-30.139-5.22-1.694-10.812-2.048-16.206-1.022-11.793 2.242-21.385 10.738-25.036 22.173l-.203.636c-2.22 6.952-2.036 14.545.517 21.38l8.212 21.991c2.863-1.46 6.032-2.223 9.293-2.223z" fill="#3762cc"/><path d="m161.542 95.188c-.022 0-.044 0-.067-.001-20.086-.666-39.868-12.653-51.674-21.355l7.44 10.616c.829 1.182.818 2.702-.026 3.873-.832 1.154-2.248 1.638-3.604 1.232-4.867-1.453-9.628-3.371-14.151-5.701-21.065-10.85-36.4-30.435-42.104-53.748-.844-3.45.204-7.114 2.734-9.577.66-.701 7.473-7.706 20.098-11.899 11.922-3.961 31.515-6.033 57.146 6.583.016.008.031.016.046.023 14.378 6.04 25.397 18.123 30.249 33.175 3.747 11.625 3.504 24.344-.684 35.812l-3.526 9.653c-.288.792-1.04 1.314-1.877 1.314zm-54.854-27.92c.707 0 1.417.238 2.029.717 10.441 8.176 30.808 21.865 51.45 23.136l3.021-8.271c3.883-10.636 4.108-22.431.633-33.212-4.51-13.993-14.767-25.211-28.14-30.777-.093-.039-.182-.084-.266-.135-46.462-22.786-72.171 4.281-72.426 4.558-.027.029-.056.059-.084.086-1.537 1.478-2.174 3.694-1.663 5.783 5.428 22.188 20.015 40.823 40.021 51.129 3.728 1.92 7.604 3.54 11.563 4.835l-8.82-12.585c-.959-1.37-.776-3.197.435-4.345.642-.61 1.442-.919 2.247-.919z" fill="#3762cc"/><path d="m94.455 179.203c-16.779 0-32.504-6.528-44.279-18.381-.372-.375-.581-.881-.581-1.41v-28.159c0-1.104.896-2 2-2h85.705c1.104 0 2 .896 2 2v28.174c0 .528-.209 1.035-.582 1.41-11.773 11.843-27.493 18.366-44.263 18.366zm-40.86-20.623c10.952 10.727 25.429 16.623 40.86 16.623 15.422 0 29.895-5.892 40.845-16.609v-25.341h-81.705z" fill="#3762cc"/><path d="m134.647 126.126h-10.853v-7.434h10.853c2.053 0 3.717 1.664 3.717 3.717.001 2.053-1.664 3.717-3.717 3.717z" fill="#a4c9ff"/><path d="m63.843 126.069c-3.511-.424-6.042-3.603-6.042-7.14v-10.87c0-3.536 2.531-6.716 6.042-7.14 4.182-.505 7.751 2.757 7.751 6.836v11.479c.001 4.079-3.569 7.341-7.751 6.835z" fill="#3762cc"/><path d="m124.184 126.121c-3.803 0-6.897-3.089-6.897-6.887v-11.479c0-3.798 3.094-6.887 6.897-6.887 3.802 0 6.896 3.09 6.896 6.887v11.479c0 3.798-3.094 6.887-6.896 6.887z" fill="#3762cc"/><path d="m127.363 133.411v-7.285h7.434v7.285c0 2.053-1.664 3.717-3.717 3.717-2.053 0-3.717-1.664-3.717-3.717z" fill="#a4c9ff"/><path d="m135.27 105.09c-.132 0-.267-.013-.402-.041l-21.775-4.442c-1.082-.221-1.781-1.277-1.56-2.359s1.277-1.783 2.359-1.56l21.775 4.442c1.082.221 1.781 1.277 1.56 2.359-.193.948-1.027 1.601-1.957 1.601z" fill="#3762cc"/><path d="m53.625 105.09c-.931 0-1.764-.653-1.958-1.601-.221-1.083.478-2.139 1.56-2.359l21.775-4.442c1.082-.224 2.139.478 2.359 1.56.221 1.083-.478 2.139-1.56 2.359l-21.775 4.442c-.133.028-.268.041-.401.041z" fill="#3762cc"/><path d="m98.9 177.023c-.243.019-.485.04-.729.055-.377.023-.755.043-1.134.059-.857.039-1.716.065-2.582.065s-1.726-.027-2.583-.065c-.379-.016-.757-.036-1.135-.059-.243-.016-.484-.036-.726-.055-8.857-.642-17.182-3.166-24.557-7.197v6.91c0 16.066 12.566 29.091 28.067 29.091h1.866c15.501 0 28.067-13.025 28.067-29.091v-6.911c-7.373 4.031-15.698 6.556-24.554 7.198z" fill="#f9cfcf"/><path d="m163.82 233.765h-138.73c-1.104 0-2-.896-2-2v-19.505c0-18.952 15.418-34.37 34.37-34.37h6.016c-.014-.388-.021-.773-.021-1.154v-6.91c0-.706.373-1.36.98-1.72.607-.361 1.36-.374 1.979-.035 7.33 4.006 15.317 6.347 23.742 6.957l.709.054c.358.022.724.042 1.091.057 1.663.074 3.336.074 4.99 0 .372-.016.737-.035 1.103-.057l.694-.053c8.436-.611 16.423-2.952 23.752-6.958.619-.339 1.372-.326 1.979.035.607.36.98 1.014.98 1.72v6.911c0 .381-.007.766-.021 1.154h6.016c18.952 0 34.371 15.418 34.371 34.37v19.505c0 1.104-.896 1.999-2 1.999zm-136.73-4h134.73v-17.505c0-16.746-13.624-30.37-30.371-30.37h-8.161c-.566 0-1.106-.24-1.486-.661-.379-.42-.562-.982-.503-1.546.104-.996.156-1.987.156-2.947v-3.639c-7.009 3.36-14.532 5.349-22.411 5.92l-.745.057c-.396.024-.786.044-1.177.061-1.763.08-3.567.08-5.34 0-.387-.017-.777-.037-1.167-.061l-.761-.058c-7.868-.57-15.39-2.559-22.399-5.918v3.638c0 .959.053 1.951.156 2.947.059.563-.125 1.125-.503 1.546-.379.421-.919.661-1.486.661h-8.162c-16.746 0-30.37 13.624-30.37 30.37z" fill="#3762cc"/><path d="m216.097 168.067v-3.743-20.981c0-3.502-2.839-6.341-6.341-6.341-3.502 0-6.341 2.839-6.341 6.341v-8.697c0-3.502-2.839-6.341-6.341-6.341-3.502 0-6.341 2.839-6.341 6.341v-6.627c0-3.502-2.839-6.341-6.341-6.341-3.502 0-6.341 2.839-6.341 6.341v6.627c0-3.502-2.839-6.341-6.341-6.341-3.502 0-6.341 2.839-6.341 6.341v29.678 3.743.121l-2.289-6.427c-1.933-5.429-7.902-8.262-13.33-6.328-1.858.662-2.828 2.705-2.167 4.564l15.515 66.334h52.195z" fill="#a4c9ff"/><path d="m190.732 170.067c-1.104 0-2-.896-2-2v-40.047c0-2.394-1.947-4.341-4.341-4.341s-4.341 1.947-4.341 4.341v40.048c0 1.104-.896 2-2 2s-2-.896-2-2v-40.048c0-4.6 3.742-8.341 8.341-8.341s8.341 3.742 8.341 8.341v40.048c0 1.104-.896 1.999-2 1.999z" fill="#3762cc"/><path d="m203.415 170.067c-1.104 0-2-.896-2-2v-33.421c0-2.394-1.947-4.341-4.341-4.341s-4.341 1.947-4.341 4.341v33.421c0 1.104-.896 2-2 2s-2-.896-2-2v-33.421c0-4.599 3.742-8.341 8.341-8.341s8.341 3.742 8.341 8.341v33.421c0 1.105-.896 2-2 2z" fill="#3762cc"/><path d="m216.097 170.067c-1.104 0-2-.896-2-2v-24.725c0-2.394-1.947-4.341-4.341-4.341s-4.341 1.947-4.341 4.341v24.725c0 1.104-.896 2-2 2s-2-.896-2-2v-24.725c0-4.6 3.742-8.341 8.341-8.341 4.6 0 8.341 3.742 8.341 8.341v24.725c0 1.105-.896 2-2 2z" fill="#3762cc"/><path d="m165.367 181.949c-1.104 0-2-.896-2-2v-45.303c0-4.599 3.742-8.341 8.341-8.341s8.341 3.742 8.341 8.341v33.421c0 1.104-.896 2-2 2s-2-.896-2-2v-33.421c0-2.394-1.947-4.341-4.341-4.341s-4.341 1.947-4.341 4.341v45.303c0 1.105-.896 2-2 2z" fill="#3762cc"/><path d="m215.858 233.159h-52.256c-1.313 0-2.377-1.064-2.377-2.377v-2.074c0-1.313 1.064-2.377 2.377-2.377h52.256c1.313 0 2.377 1.064 2.377 2.377v2.074c0 1.313-1.064 2.377-2.377 2.377z" fill="#a4c9ff"/><path d="m215.858 235.159h-52.256c-2.414 0-4.377-1.964-4.377-4.377v-2.074c0-2.414 1.964-4.377 4.377-4.377h52.256c2.414 0 4.377 1.964 4.377 4.377v2.074c0 2.413-1.964 4.377-4.377 4.377zm-52.256-6.828c-.208 0-.377.169-.377.377v2.074c0 .208.169.377.377.377h52.256c.208 0 .377-.169.377-.377v-2.074c0-.208-.169-.377-.377-.377z" fill="#3762cc"/><path d="m215.292 228.331h-52.195c-.929 0-1.736-.64-1.947-1.544l-15.493-66.237c-.948-2.862.565-5.983 3.42-7 3.129-1.114 6.505-.944 9.505.48 1.94.921 3.573 2.294 4.786 3.996v-23.379c0-4.6 3.742-8.341 8.341-8.341 1.595 0 3.087.45 4.355 1.229.252-4.375 3.891-7.856 8.327-7.856s8.075 3.481 8.327 7.856c1.269-.78 2.76-1.229 4.355-1.229 4.6 0 8.341 3.742 8.341 8.341v1.577c1.265-.774 2.752-1.221 4.341-1.221 4.6 0 8.341 3.742 8.341 8.341v24.724.028l-.805 58.264c-.015 1.092-.906 1.971-1.999 1.971zm-50.609-4h48.636l.778-56.278v-24.709c0-2.394-1.947-4.341-4.341-4.341s-4.341 1.948-4.341 4.341c0 1.104-.896 2-2 2s-2-.896-2-2v-8.697c0-2.394-1.947-4.341-4.341-4.341s-4.341 1.947-4.341 4.341c0 1.104-.896 2-2 2s-2-.896-2-2v-6.626c0-2.394-1.947-4.341-4.341-4.341s-4.341 1.947-4.341 4.341v6.626c0 1.104-.896 2-2 2s-2-.896-2-2c0-2.394-1.947-4.341-4.341-4.341s-4.341 1.947-4.341 4.341v33.542c0 .973-.701 1.805-1.66 1.971-.961.169-1.898-.383-2.225-1.3l-2.289-6.427c-.756-2.122-2.293-3.823-4.328-4.79-2.035-.966-4.325-1.082-6.447-.326-.816.291-1.244 1.192-.953 2.008.025.071.046.143.063.215zm51.414-56.264h.01z" fill="#3762cc"/><path d="m241.497 183.359v-3.743-20.981c0-3.502-2.839-6.341-6.341-6.341-3.502 0-6.341 2.839-6.341 6.341v-8.697c0-3.502-2.839-6.341-6.341-6.341-3.502 0-6.341 2.839-6.341 6.341v-6.627c0-3.502-2.839-6.341-6.341-6.341-3.502 0-6.341 2.839-6.341 6.341v6.627c0-3.502-2.839-6.341-6.341-6.341-3.502 0-6.341 2.839-6.341 6.341v29.678 3.743.121l-2.289-6.427c-1.933-5.429-7.902-8.262-13.33-6.328-1.858.662-2.828 2.705-2.167 4.564l15.515 66.334h52.195z" fill="#a4c9ff"/><path d="m216.132 185.359c-1.104 0-2-.896-2-2v-40.048c0-2.394-1.947-4.341-4.341-4.341s-4.341 1.947-4.341 4.341v40.048c0 1.104-.896 2-2 2s-2-.896-2-2v-40.048c0-4.6 3.742-8.341 8.341-8.341s8.341 3.742 8.341 8.341v40.048c0 1.104-.896 2-2 2z" fill="#3762cc"/><path d="m228.814 185.359c-1.104 0-2-.896-2-2v-33.421c0-2.394-1.947-4.341-4.341-4.341s-4.341 1.947-4.341 4.341v33.421c0 1.104-.896 2-2 2s-2-.896-2-2v-33.421c0-4.6 3.742-8.341 8.341-8.341s8.341 3.742 8.341 8.341v33.421c0 1.104-.895 2-2 2z" fill="#3762cc"/><path d="m241.497 185.359c-1.104 0-2-.896-2-2v-24.725c0-2.394-1.947-4.341-4.341-4.341s-4.341 1.947-4.341 4.341v24.725c0 1.104-.896 2-2 2s-2-.896-2-2v-24.725c0-4.6 3.742-8.341 8.341-8.341s8.341 3.742 8.341 8.341v24.725c0 1.104-.896 2-2 2z" fill="#3762cc"/><path d="m190.767 197.241c-1.104 0-2-.896-2-2v-45.303c0-4.6 3.742-8.341 8.341-8.341s8.341 3.742 8.341 8.341v33.421c0 1.104-.896 2-2 2s-2-.896-2-2v-33.421c0-2.394-1.947-4.341-4.341-4.341s-4.341 1.947-4.341 4.341v45.303c0 1.104-.896 2-2 2z" fill="#3762cc"/><path d="m241.258 248.451h-52.256c-1.313 0-2.377-1.064-2.377-2.377v-2.074c0-1.313 1.064-2.377 2.377-2.377h52.256c1.313 0 2.377 1.064 2.377 2.377v2.074c0 1.312-1.064 2.377-2.377 2.377z" fill="#a4c9ff"/><path d="m241.258 250.451h-52.256c-2.414 0-4.377-1.963-4.377-4.377v-2.074c0-2.414 1.964-4.377 4.377-4.377h52.256c2.414 0 4.377 1.963 4.377 4.377v2.074c0 2.413-1.964 4.377-4.377 4.377zm-52.257-6.828c-.208 0-.377.169-.377.377v2.074c0 .208.169.377.377.377h52.256c.208 0 .377-.169.377-.377v-2.074c0-.208-.169-.377-.377-.377z" fill="#3762cc"/><path d="m240.691 243.623h-52.195c-.929 0-1.736-.64-1.947-1.544l-15.493-66.237c-.949-2.863.565-5.983 3.42-7 5.342-1.903 11.144.084 14.291 4.483v-23.386c0-4.6 3.742-8.341 8.341-8.341 1.595 0 3.087.45 4.355 1.229.252-4.375 3.891-7.856 8.327-7.856s8.075 3.482 8.328 7.856c1.268-.78 2.76-1.229 4.355-1.229 4.6 0 8.341 3.742 8.341 8.341v1.576c1.266-.774 2.752-1.221 4.341-1.221 4.599 0 8.341 3.742 8.341 8.341v24.725.028l-.805 58.264c-.015 1.092-.906 1.971-2 1.971zm-50.608-4h48.636l.778-56.278v-24.71c0-2.394-1.947-4.341-4.341-4.341s-4.341 1.948-4.341 4.341c0 1.104-.896 2-2 2s-2-.896-2-2v-8.696c0-2.394-1.947-4.341-4.341-4.341s-4.341 1.947-4.341 4.341c0 1.104-.896 2-2 2s-2-.896-2-2v-6.627c0-2.394-1.947-4.341-4.341-4.341s-4.341 1.947-4.341 4.341v6.627c0 1.104-.896 2-2 2s-2-.896-2-2c0-2.394-1.947-4.341-4.341-4.341s-4.341 1.947-4.341 4.341v33.542c0 .973-.701 1.805-1.66 1.971-.955.167-1.898-.382-2.225-1.3l-2.289-6.427c-1.56-4.381-6.395-6.676-10.775-5.115-.816.291-1.244 1.192-.953 2.008.025.07.046.143.063.215zm51.414-56.264h.01z" fill="#3762cc"/></svg>