<?xml version="1.0" encoding="iso-8859-1"?>
<!-- Generator: Adobe Illustrator 19.0.0, SVG Export Plug-In . SVG Version: 6.00 Build 0)  -->
<svg version="1.1" id="Capa_1" xmlns="http://www.w3.org/2000/svg" xmlns:xlink="http://www.w3.org/1999/xlink" x="0px" y="0px"
	 viewBox="0 0 480.059 480.059" style="enable-background:new 0 0 480.059 480.059;" xml:space="preserve" width="50" height="50">
<g>
	<g>
		<path d="M232.059,40.033v-32h-16v32h-16v-32h-16v32H95.336C90.918,13.894,66.146-3.714,40.008,0.705
			C13.869,5.123-3.739,29.894,0.679,56.033c4.418,26.139,29.19,43.747,55.329,39.329c20.143-3.405,35.924-19.186,39.329-39.329
			h152.723v-16H232.059z M48.059,80.033c-17.666-0.018-31.982-14.334-32-32c0-17.673,14.327-32,32-32s32,14.327,32,32
			S65.732,80.033,48.059,80.033z"/>
	</g>
</g>
<g>
	<g>
		<path d="M472.068,256.033c-0.003,0-0.006,0-0.009,0h-56.664c-4.423-26.143-29.201-43.751-55.344-39.328
			c-20.141,3.407-35.92,19.187-39.328,39.328h-56.664c-4.416-0.003-7.997,3.575-8,7.991c0,0.003,0,0.006,0,0.009v64
			c-0.003,4.416,3.575,7.997,7.991,8c0.003,0,0.006,0,0.009,0c17.673,0,32,14.327,32,32c0,17.673-14.327,32-32,32
			c-4.416-0.003-7.997,3.575-8,7.991c0,0.003,0,0.006,0,0.009v64c-0.003,4.416,3.575,7.997,7.991,8c0.003,0,0.006,0,0.009,0h208
			c4.416,0.003,7.997-3.575,8-7.991c0-0.003,0-0.006,0-0.009v-208C480.061,259.618,476.484,256.036,472.068,256.033z
			 M464.059,464.033h-192v-48.664c26.143-4.423,43.751-29.201,39.328-55.344c-3.407-20.141-19.187-35.92-39.328-39.328v-48.664h56
			c4.416,0.003,7.997-3.575,8-7.991c0-0.003,0-0.006,0-0.009c0-17.673,14.327-32,32-32c17.673,0,32,14.327,32,32
			c-0.003,4.416,3.575,7.997,7.991,8c0.003,0,0.006,0,0.009,0h56V464.033z"/>
	</g>
</g>
<g>
	<g>
		<path d="M423.817,414.096l-12.266-49.094c16.013-15.198,16.674-40.499,1.477-56.513s-40.499-16.674-56.513-1.477
			c-7.959,7.554-12.463,18.047-12.456,29.021c0.025,10.962,4.547,21.433,12.508,28.969l-12.266,49.094
			c-1.071,4.285,1.534,8.627,5.819,9.699c0.634,0.159,1.285,0.239,1.939,0.239h64c4.417-0.001,7.997-3.582,7.997-7.999
			C424.056,415.381,423.975,414.73,423.817,414.096z M394.809,364.002l11,44.031h-43.5l11-44.031
			c0.799-3.189-0.434-6.542-3.109-8.453c-10.793-7.669-13.325-22.635-5.656-33.428c7.669-10.793,22.635-13.325,33.428-5.656
			c6.336,4.502,10.096,11.796,10.087,19.569c-0.033,7.76-3.809,15.028-10.141,19.516
			C395.243,357.46,394.009,360.813,394.809,364.002z"/>
	</g>
</g>
<g>
	<g>
		<path d="M304.059,40.033h-40v16h40c30.928,0,56,25.072,56,56c0,30.928-25.072,56-56,56h-160c-57.438,0-104,46.562-104,104
			s46.562,104,104,104h60.688l-50.344,50.344l11.313,11.312l64-64c3.124-3.122,3.125-8.186,0.003-11.309
			c-0.001-0.001-0.002-0.002-0.003-0.003l-64-64l-11.312,11.312l50.344,50.344h-60.688c-48.601,0-88-39.399-88-88
			c0-48.601,39.399-88,88-88h160c39.765,0,72-32.236,72-72C376.059,72.269,343.823,40.033,304.059,40.033z"/>
	</g>
</g>
<g>
</g>
<g>
</g>
<g>
</g>
<g>
</g>
<g>
</g>
<g>
</g>
<g>
</g>
<g>
</g>
<g>
</g>
<g>
</g>
<g>
</g>
<g>
</g>
<g>
</g>
<g>
</g>
<g>
</g>
</svg>
