<svg height="50" viewBox="0 0 64 64" width="50" xmlns="http://www.w3.org/2000/svg"><path d="m12 3h16v8h-16z" fill="#394d5c"/><path d="m15 3h2v5h-2z" fill="#aabece"/><path d="m19 3h2v5h-2z" fill="#aabece"/><path d="m23 3h2v5h-2z" fill="#aabece"/><path d="m51.478 18.826 1.988-6.955a2 2 0 0 0 -1.321-2.457l-15.224-4.807a2 2 0 0 0 -2.514 1.319l-2.007 6.539-4.4-1.465h-14l-4 5v43a2 2 0 0 0 2 2h41a2 2 0 0 0 2-2v-39zm-13.478-9.826 11 4-1.364 4.545-11.091-3.7z" fill="#d3d2c1"/><path d="m17 25h30v26h-30z" fill="#257399"/><path d="m10 25h7v26h-7z" fill="#195c85"/><path d="m47 25h8v26h-8z" fill="#195c85"/><path d="m28 18h-14v-2h13v-2h2v3a1 1 0 0 1 -1 1z" fill="#f4f4e6"/><path d="m51 58h-11v-2h10v-2h2v3a1 1 0 0 1 -1 1z" fill="#f4f4e6"/><path d="m36 56h2v2h-2z" fill="#f4f4e6"/><path d="m37 39c0 3.314-2.239 6-5 6s-6.7-4.159-5-7a36.853 36.853 0 0 0 4-9s6 6 6 10z" fill="#fcf05a"/><path d="m35 42a3 3 0 0 1 -6 0c0-2 3-5 3-5s3 3 3 5z" fill="#dd3e46"/><g fill="#fcf05a"><path d="m22 28h2v2h-2z"/><path d="m22 32h2v2h-2z"/><path d="m20 30h2v2h-2z"/><path d="m24 30h2v2h-2z"/><path d="m40 42h2v2h-2z"/><path d="m40 46h2v2h-2z"/><path d="m38 44h2v2h-2z"/><path d="m42 44h2v2h-2z"/></g></svg>