<svg height="50" viewBox="0 0 64 64" width="50" xmlns="http://www.w3.org/2000/svg" xmlns:xlink="http://www.w3.org/1999/xlink"><linearGradient id="linear-gradient" gradientUnits="userSpaceOnUse" x1="-3.11" x2="62.207" y1="28.5" y2="28.5"><stop offset="0" stop-color="#f9a86d"/><stop offset=".503" stop-color="#f05361"/><stop offset="1" stop-color="#b72563"/></linearGradient><linearGradient id="linear-gradient-2" x1="-3.11" x2="62.207" xlink:href="#linear-gradient" y1="38" y2="38"/><linearGradient id="linear-gradient-3" x1="-3.11" x2="62.207" xlink:href="#linear-gradient" y1="55" y2="55"/><linearGradient id="linear-gradient-4" x1="-3.11" x2="62.207" xlink:href="#linear-gradient" y1="32" y2="32"/><linearGradient id="linear-gradient-5" x1="-3.11" x2="62.207" xlink:href="#linear-gradient" y1="46.945" y2="46.945"/><linearGradient id="linear-gradient-6" x1="-3.11" x2="62.207" xlink:href="#linear-gradient" y1="39" y2="39"/><g id="Gradient_outline" data-name="Gradient outline"><path d="m30 23v12h2v-11h4v-2h-5a1 1 0 0 0 -1 1z" fill="url(#linear-gradient)"/><path d="m30 37h2v2h-2z" fill="url(#linear-gradient-2)"/><path d="m32 52h-2v5a1 1 0 0 0 1 1h3v-2h-2z" fill="url(#linear-gradient-3)"/><path d="m45 12a1 1 0 0 0 1-1v-3h7a1 1 0 0 0 1-1v-4a1 1 0 0 0 -1-1h-22a1 1 0 0 0 -1 1v1h-9a7.008 7.008 0 0 0 -7 7v17h-1a1 1 0 0 0 -1 .923l-2 26a1 1 0 0 0 1 1.077h12a1 1 0 0 0 1-1.077l-2-26a1 1 0 0 0 -1-.923h-1v-17a1 1 0 0 1 1-1h9v1a1 1 0 0 0 1 1h2v2h-2a1 1 0 0 0 -1 1v3.1a5.009 5.009 0 0 0 -4 4.9v36a3 3 0 0 0 3 3h18a3 3 0 0 0 3-3v-36a5.009 5.009 0 0 0 -4-4.9v-3.1a1 1 0 0 0 -1-1h-2v-2zm-23.08 42h-9.84l1.846-24h6.148zm-.92-46a3 3 0 0 0 -3 3v17h-2v-17a5.006 5.006 0 0 1 5-5h9v2zm11-4h20v2h-13a1.006 1.006 0 0 0 -.555.168l-3 2 1.11 1.664 2.745-1.832h4.7v2h-12zm16 48h-12v-22h12zm0-29v5h-13a1 1 0 0 0 -1 1v24a1 1 0 0 0 1 1h13v5a1 1 0 0 1 -1 1h-18a1 1 0 0 1 -1-1v-36a3 3 0 0 1 3-3h14a3 3 0 0 1 3 3zm-4-5h-12v-2h12zm-3-4h-6v-2h6z" fill="url(#linear-gradient-4)"/><path d="m16.994 42.11-1.988-.22-1 9a1 1 0 0 0 .994 1.11h4v-2h-2.883z" fill="url(#linear-gradient-5)"/><path d="m15 38h2v2h-2z" fill="url(#linear-gradient-6)"/></g></svg>