<svg height="50" viewBox="0 0 192 192" width="50" xmlns="http://www.w3.org/2000/svg"><g id="_12-power" data-name="12-power"><path d="m176 0h-160a16.019 16.019 0 0 0 -16 16v160a16.019 16.019 0 0 0 16 16h160a16.019 16.019 0 0 0 16-16v-160a16.019 16.019 0 0 0 -16-16zm0 176h-160v-160h160l.01 160z"/><path d="m96 32a64 64 0 1 0 64 64 64.072 64.072 0 0 0 -64-64zm0 112a48 48 0 1 1 48-48 48.055 48.055 0 0 1 -48 48z"/><path d="m112 68.686h16v22.627h-16z" transform="matrix(.707 -.707 .707 .707 -21.421 108.284)"/><path d="m60.686 72h22.627v16h-22.627z" transform="matrix(.707 -.707 .707 .707 -35.48 74.343)"/><path d="m88 104h16v24h-16z"/></g></svg>