<svg height="50" viewBox="-50 0 512 512" width="50" xmlns="http://www.w3.org/2000/svg"><path d="m248.222656 287.792969c-11.257812 11.257812-26.226562 17.457031-42.148437 17.457031s-30.886719-6.199219-42.144531-17.457031c-2.964844-2.960938-7.769532-2.964844-10.730469 0-2.964844 2.964843-2.964844 7.765625 0 10.730469 14.125 14.121093 32.902343 21.902343 52.875 21.902343 19.976562 0 38.753906-7.777343 52.878906-21.902343 2.960937-2.964844 2.960937-7.769532 0-10.730469-2.964844-2.960938-7.765625-2.960938-10.730469 0zm0 0"/><path d="m161.273438 250.96875v-29.558594c0-4.191406-3.394532-7.585937-7.585938-7.585937s-7.585938 3.394531-7.585938 7.585937v29.558594c0 4.191406 3.394532 7.585938 7.585938 7.585938s7.585938-3.394532 7.585938-7.585938zm0 0"/><path d="m258.464844 213.824219c-4.191406 0-7.589844 3.394531-7.589844 7.585937v29.558594c0 4.191406 3.398438 7.585938 7.589844 7.585938 4.1875 0 7.585937-3.394532 7.585937-7.585938v-29.558594c0-4.191406-3.398437-7.585937-7.585937-7.585937zm0 0"/><path d="m85.824219 444.398438c-4.191407 0-7.589844 3.398437-7.589844 7.589843v50.980469c0 4.191406 3.398437 7.589844 7.589844 7.589844 4.191406 0 7.585937-3.398438 7.585937-7.589844v-50.980469c0-4.191406-3.394531-7.589843-7.585937-7.589843zm0 0"/><path d="m292.109375 457.277344h-37.570313c-4.191406 0-7.585937 3.398437-7.585937 7.585937 0 4.191407 3.394531 7.589844 7.585937 7.589844h37.570313c4.191406 0 7.585937-3.398437 7.585937-7.589844 0-4.1875-3.394531-7.585937-7.585937-7.585937zm0 0"/><path d="m388.035156 173.554688c-2.109375-45.394532-20.859375-87.910157-53.144531-120.195313-34.40625-34.410156-80.152344-53.359375-128.808594-53.359375-48.039062 0-93.367187 18.535156-127.632812 52.191406-33.015625 32.421875-52.183594 75.351563-54.320313 121.355469-14.246094 6.742187-24.128906 21.25-24.128906 38.027344v43.835937c0 23.179688 18.859375 42.042969 42.042969 42.042969h6.785156c3.375 8.574219 11.734375 14.660156 21.492187 14.660156 5.402344 0 10.375-1.871093 14.316407-4.992187 6.640625 20.144531 18.15625 38.09375 33.15625 52.433594-17.375 16.554687-29.613281 37.355468-35.578125 60.671874-1.035156 4.058594 1.414062 8.191407 5.472656 9.226563.632812.164063 1.261719.238281 1.882812.238281 3.386719 0 6.46875-2.277344 7.347657-5.707031 4.984375-19.492187 14.960937-36.992187 29.054687-51.199219l25.5625 68.054688c.921875 2.453125 3.046875 4.261718 5.621094 4.773437.492188.097657.988281.144531 1.480469.144531 2.078125 0 4.09375-.855468 5.542969-2.40625l34.304687-36.695312v97.757812c0 4.1875 3.398437 7.585938 7.589844 7.585938 4.191406 0 7.585937-3.398438 7.585937-7.585938v-97.757812l34.308594 36.695312c1.789062 1.917969 4.445312 2.769532 7.019531 2.261719 2.574219-.511719 4.699219-2.320312 5.625-4.773437l25.566407-68.074219c21 21.242187 32.5625 49.347656 32.5625 79.21875v50.984375c0 4.191406 3.394531 7.585938 7.585937 7.585938s7.589844-3.394532 7.589844-7.585938v-50.984375c0-34.136719-13.300781-66.238281-37.449219-90.398437-.671875-.671876-1.359375-1.34375-2.058594-2.007813 15.042969-14.414063 26.496094-32.410156 33.101563-52.460937 3.941406 3.125 8.914062 5 14.324219 5 9.757812 0 18.113281-6.089844 21.492187-14.664063h6.78125c23.183594 0 42.046875-18.863281 42.046875-42.042969v-43.835937c-.003906-16.773438-9.882812-31.277344-24.121094-38.019531zm-298.953125-110.539063c31.410157-30.851563 72.960938-47.84375 117-47.84375 44.601563 0 86.535157 17.371094 118.078125 48.914063 28.488282 28.492187 45.480469 65.667968 48.433594 105.523437-.824219-.046875-1.652344-.078125-2.484375-.078125h-6.785156c-2.480469-6.300781-7.648438-11.25-14.085938-13.4375-1.234375-24.210938-9.5-47.128906-24.125-66.632812-2.511719-3.351563-7.269531-4.03125-10.621093-1.515626-3.351563 2.515626-4.03125 7.269532-1.519532 10.621094 12.667969 16.886719 19.878906 36.707032 21.078125 57.652344-8.914062 3.203125-15.308593 11.738281-15.308593 21.738281v26.242188c-10.289063-2.558594-23.539063-10.964844-37.425782-33.285157-11.226562-18.039062-17.304687-36.460937-17.363281-36.640624-.816406-2.511719-2.878906-4.414063-5.445313-5.03125-2.566406-.613282-5.265624.148437-7.136718 2.011718-21.292969 21.296875-78.191406 45.042969-122.042969 58.089844-14.53125 4.328125-27.121094 7.316406-35.917969 8.5625v-19.949219c0-10.003906-6.402344-18.542969-15.320312-21.742187 3.238281-55.84375 49.691406-100.285156 106.332031-100.285156h43.304687c23.984376 0 46.625 7.78125 65.476563 22.5 3.300781 2.578124 8.070313 1.992187 10.648437-1.3125 2.578126-3.300782 1.992188-8.070313-1.308593-10.648438-21.542969-16.820312-47.414063-25.714844-74.816407-25.714844h-43.304687c-64.972656 0-118.214844 51.183594-121.527344 115.34375-6.429687 2.191406-11.589843 7.140625-14.066406 13.433594h-6.785156c-.832031 0-1.65625.03125-2.476563.078125 2.996094-40.40625 20.367188-77.964844 49.515625-106.59375zm-73.90625 192.394531v-43.835937c0-14.816407 12.054688-26.871094 26.871094-26.871094h5.183594v97.574219h-5.183594c-14.816406 0-26.871094-12.050782-26.871094-26.867188zm63.0625 33.613282c0 4.367187-3.554687 7.917968-7.917969 7.917968-4.367187 0-7.917968-3.550781-7.917968-7.917968v-111.0625c0-4.367188 3.550781-7.917969 7.917968-7.917969 4.363282 0 7.917969 3.550781 7.917969 7.917969zm83.203125 135.039062-16.835937-44.820312c13.671875 7.527343 28.855469 12.628906 44.980469 14.714843zm89.261719 0-28.144531-30.109375c2.613281-.335937 5.214844-.742187 7.789062-1.238281 13.292969-2.554688 25.773438-7.140625 37.15625-13.382813zm-23.222656-46.25c-6.992188 1.347656-14.195313 2.03125-21.410157 2.03125-62.117187 0-112.660156-50.539062-112.660156-112.660156v-53.976563c9.855469-1.203125 23.816406-4.421875 40.25-9.316406 23.78125-7.078125 49.859375-16.835937 71.550782-26.773437 20.707031-9.484376 36.878906-18.734376 48.269531-27.597657 8.46875 20.628907 30.371093 64.492188 65.261719 70.191407v47.472656c0 53.9375-38.378907 100.464844-91.261719 110.628906zm114.351562-80.871094c-4.363281 0-7.914062-3.550781-7.914062-7.917968v-111.0625c0-4.367188 3.550781-7.917969 7.914062-7.917969 4.367188 0 7.917969 3.550781 7.917969 7.917969v111.0625c0 4.367187-3.550781 7.917968-7.917969 7.917968zm55.144531-41.53125c0 14.816406-12.050781 26.867188-26.867187 26.867188h-5.1875v-97.574219h5.1875c14.8125 0 26.867187 12.054687 26.867187 26.871094zm0 0"/></svg>