<svg height="50" viewBox="0 -180 512 512" width="50" xmlns="http://www.w3.org/2000/svg"><path d="m483.671875 37.085938h-36.058594l7.320313-29.28125c1.148437-4.585938 5.269531-7.804688 9.996094-7.804688h8.4375c5.691406 0 10.304687 4.613281 10.304687 10.300781zm0 0" fill="#4d78a0"/><path d="m236.609375 122.589844h-29.289063c-10.648437 0-19.3125-8.660156-19.3125-19.3125v-25.511719c0-4.269531 3.460938-7.726563 7.726563-7.726563s7.726563 3.457032 7.726563 7.726563v25.511719c0 2.128906 1.730468 3.859375 3.859374 3.859375h29.289063c1.664063 0 3.132813-1.058594 3.660156-2.640625l9.722657-29.175782c1.347656-4.046874 5.722656-6.234374 9.773437-4.886718 4.046875 1.351562 6.234375 5.726562 4.886719 9.773437l-9.722656 29.175781c-2.632813 7.898438-9.996094 13.207032-18.320313 13.207032zm0 0" fill="#4d78a0"/><path d="m229.003906 94.464844c-4.269531 0-7.726562-3.460938-7.726562-7.726563v-8.644531c0-4.269531 3.457031-7.726562 7.726562-7.726562 4.265625 0 7.726563 3.457031 7.726563 7.726562v8.644531c0 4.265625-3.460938 7.726563-7.726563 7.726563zm0 0" fill="#ff5656"/><path d="m512 37.035156v34.179688c0 3.617187-2.9375 6.554687-6.550781 6.554687h-359.152344v-47.285156h359.152344c3.613281 0 6.550781 2.933594 6.550781 6.550781zm0 0" fill="#b9deed"/><path d="m167.085938 30.488281v60.265625c0 5.109375-3.539063 9.53125-8.527344 10.65625l-145.246094 32.65625c-6.824219 1.542969-13.3125-3.65625-13.3125-10.644531v-82.011719c0-6.027344 4.882812-10.921875 10.921875-10.921875h69.722656c3.617188 0 6.550781 2.9375 6.550781 6.554688v6.433593c0 3.617188 2.933594 6.550782 6.554688 6.550782h26.339844c3.621094 0 6.554687-2.933594 6.554687-6.550782v-6.433593c0-3.617188 2.933594-6.554688 6.550781-6.554688zm0 0" fill="#a46244"/><path d="m167.085938 65.921875v24.835937c0 5.109376-3.535157 9.527344-8.53125 10.652344l-145.246094 32.65625c-6.820313 1.546875-13.308594-3.65625-13.308594-10.652344v-24.824218c0 6.992187 6.488281 12.183594 13.308594 10.648437l145.246094-32.65625c4.996093-1.121093 8.53125-5.550781 8.53125-10.660156zm0 0" fill="#8c482c"/><path d="m447.421875 105.035156h-126.6875c-3.621094 0-6.554687-2.933594-6.554687-6.550781v-27.976563c0-3.617187 2.933593-6.554687 6.554687-6.554687h126.6875c3.617187 0 6.554687 2.9375 6.554687 6.554687v27.976563c0 3.617187-2.9375 6.550781-6.554687 6.550781zm0 0" fill="#a46244"/><g fill="#8c482c"><path d="m453.972656 80.464844v18.019531c0 3.617187-2.929687 6.554687-6.554687 6.554687h-126.6875c-3.617188 0-6.554688-2.9375-6.554688-6.554687v-18.019531c0 3.617187 2.9375 6.554687 6.554688 6.554687h126.6875c3.625 0 6.554687-2.9375 6.554687-6.554687zm0 0"/><path d="m348.402344 109.488281c-4.269532 0-7.726563-3.460937-7.726563-7.726562v-37.804688c0-4.269531 3.457031-7.726562 7.726563-7.726562 4.265625 0 7.726562 3.457031 7.726562 7.726562v37.804688c0 4.265625-3.460937 7.726562-7.726562 7.726562zm0 0"/><path d="m384.078125 109.488281c-4.269531 0-7.726563-3.460937-7.726563-7.726562v-37.804688c0-4.269531 3.457032-7.726562 7.726563-7.726562 4.265625 0 7.726563 3.457031 7.726563 7.726562v37.804688c0 4.265625-3.460938 7.726562-7.726563 7.726562zm0 0"/><path d="m419.753906 109.488281c-4.265625 0-7.726562-3.460937-7.726562-7.726562v-37.804688c0-4.269531 3.460937-7.726562 7.726562-7.726562 4.269532 0 7.726563 3.457031 7.726563 7.726562v37.804688c0 4.265625-3.457031 7.726562-7.726563 7.726562zm0 0"/></g><path d="m195.734375 30.484375h15.453125v47.285156h-15.453125zm0 0" fill="#95c6df"/><path d="m59.183594 135.171875v-32.546875c0-3.414062 2.769531-6.179688 6.183594-6.179688h53.003906c12.402344 0 22.453125 10.050782 22.453125 22.453126 0 12.398437-10.050781 22.453124-22.453125 22.453124h-53.003906c-3.414063 0-6.183594-2.769531-6.183594-6.179687zm0 0" fill="#ffdf4a"/><path d="m118.367188 141.351562h-53c-3.410157 0-6.183594-2.773437-6.183594-6.183593v-18.582031c0 3.410156 2.773437 6.179687 6.183594 6.179687h53c6.203124 0 11.816406-2.511719 15.886718-6.582031 1.886719-1.886719 3.441406-4.109375 4.554688-6.574219 1.296875 2.832031 2.015625 5.976563 2.015625 9.28125 0 6.203125-2.511719 11.816406-6.570313 15.875-4.070312 4.070313-9.683594 6.585937-15.886718 6.585937zm0 0" fill="#ffbd48"/><path d="m107.953125 96.445312v44.90625h-42.589844c-3.410156 0-6.179687-2.761718-6.179687-6.179687v-32.542969c0-3.410156 2.769531-6.183594 6.179687-6.183594zm0 0" fill="#f72d2d"/><path d="m107.953125 141.351562h-42.585937c-3.410157 0-6.183594-2.761718-6.183594-6.183593v-18.582031c0 3.410156 2.773437 6.179687 6.183594 6.179687h42.585937zm0 0" fill="#e52a2a"/><path d="m91.160156 96.445312v44.90625h-25.796875c-3.410156 0-6.179687-2.761718-6.179687-6.179687v-32.542969c0-3.410156 2.769531-6.183594 6.179687-6.183594zm0 0" fill="#e52a2a"/><path d="m71.589844 151.253906h-32.546875c-3.414063 0-6.179688-2.769531-6.179688-6.183594v-53.003906c0-12.402344 10.050781-22.453125 22.453125-22.453125s22.453125 10.050781 22.453125 22.453125v53.003906c0 3.414063-2.765625 6.183594-6.179687 6.183594zm0 0" fill="#ffdf4a"/><path d="m77.769531 92.070312v53c0 3.410157-2.769531 6.183594-6.179687 6.183594h-18.585938c3.410156 0 6.179688-2.773437 6.179688-6.183594v-53c0-6.203124-2.511719-11.816406-6.582032-15.886718-1.882812-1.882813-4.109374-3.441406-6.574218-4.550782 2.835937-1.300781 5.976562-2.019531 9.285156-2.019531 6.199219 0 11.816406 2.511719 15.875 6.570313 4.070312 4.070312 6.582031 9.683594 6.582031 15.886718zm0 0" fill="#ffbd48"/><path d="m77.769531 102.484375v42.585937c0 3.410157-2.761719 6.183594-6.179687 6.183594h-32.542969c-3.410156 0-6.183594-2.773437-6.183594-6.183594v-42.585937zm0 0" fill="#ff5656"/><path d="m77.769531 102.484375v42.585937c0 3.410157-2.761719 6.183594-6.179687 6.183594h-18.585938c3.410156 0 6.179688-2.773437 6.179688-6.183594v-42.585937zm0 0" fill="#f72d2d"/></svg>