<svg id="Layer_3" enable-background="new 0 0 64 64" height="50" viewBox="0 0 64 64" width="50" xmlns="http://www.w3.org/2000/svg"><path d="m62 1h-34c-.553 0-1 .448-1 1v29h-9v-9.066c3.059-1.525 5-4.642 5-8.12 0-4.139-2.775-7.75-6.749-8.781-.301-.079-.617-.013-.863.177-.244.188-.388.48-.388.79v7c0 .551-.448 1-1 1s-1-.449-1-1v-7c0-.31-.144-.602-.388-.791-.246-.189-.565-.255-.863-.177-3.974 1.031-6.749 4.642-6.749 8.781 0 3.478 1.941 6.595 5 8.12v9.067h-6c-.553 0-1 .448-1 1v9h-1c-.553 0-1 .448-1 1v10c0 .552.447 1 1 1h1v9c0 .552.447 1 1 1h54c.553 0 1-.448 1-1v-10c0-.552-.447-1-1-1h-1v-6h5c.553 0 1-.448 1-1v-42c0-.552-.447-1-1-1zm-33 2h4v40h-4zm20 42v6h-32v-8h10v1c0 .552.447 1 1 1zm-32-12v8h-2v-8zm-2 10v8h-2v-8zm2 10v8h-2v-8zm2 0h32v8h-32zm8-12h-8v-8h8zm-15.622-20.636c-2.659-1.087-4.378-3.658-4.378-6.551 0-2.772 1.593-5.239 4-6.389v5.576c0 1.654 1.346 3 3 3s3-1.346 3-3v-5.576c2.407 1.15 4 3.617 4 6.389 0 2.892-1.719 5.463-4.378 6.55-.376.155-.622.52-.622.927v9.71h-4v-9.71c0-.407-.246-.772-.622-.926zm-6.378 12.636h8v8h-8zm-2 18v-8h8v8h-7zm2 2h8v8h-8zm52 8h-4v-8h4zm-2-10h-4v-6h4zm6-8h-26v-40h26z"/><path d="m38 31h1.521c.091.258.193.511.306.758l-1.534 1.535c-.391.391-.391 1.023 0 1.414l3 3c.375.375 1.039.375 1.414 0l1.535-1.535c.246.113.499.215.758.306v1.522c0 .552.447 1 1 1h4c.553 0 1-.448 1-1v-1.522c.259-.091.512-.193.758-.306l1.535 1.535c.187.188.441.293.707.293s.52-.105.707-.293l3-3c.391-.391.391-1.023 0-1.414l-1.534-1.535c.112-.247.215-.5.306-.758h1.521c.553 0 1-.448 1-1v-4c0-.552-.447-1-1-1h-1.521c-.091-.258-.193-.511-.306-.758l1.534-1.535c.391-.391.391-1.023 0-1.414l-3-3c-.375-.375-1.039-.375-1.414 0l-1.535 1.535c-.246-.113-.499-.215-.758-.306v-1.522c0-.552-.447-1-1-1h-4c-.553 0-1 .448-1 1v1.522c-.259.091-.512.193-.758.306l-1.535-1.535c-.187-.188-.441-.293-.707-.293s-.52.105-.707.293l-3 3c-.391.391-.391 1.023 0 1.414l1.534 1.535c-.112.247-.215.5-.306.758h-1.521c-.553 0-1 .448-1 1v4c0 .552.447 1 1 1zm1-4h1.262c.456 0 .854-.308.968-.75.157-.606.389-1.18.688-1.706.223-.392.156-.884-.162-1.202l-1.342-1.342 1.586-1.586 1.342 1.342c.318.318.812.384 1.202.162.526-.3 1.1-.531 1.706-.688.441-.114.75-.512.75-.968v-1.262h2v1.262c0 .456.309.854.75.968.606.156 1.18.388 1.706.688.389.223.883.157 1.202-.162l1.342-1.342 1.586 1.586-1.342 1.342c-.318.318-.385.811-.162 1.202.3.526.531 1.1.688 1.706.114.441.512.75.968.75h1.262v2h-1.262c-.456 0-.854.308-.968.75-.157.606-.389 1.18-.688 1.706-.223.392-.156.884.162 1.202l1.342 1.342-1.586 1.586-1.342-1.342c-.319-.32-.813-.385-1.202-.162-.526.3-1.1.531-1.706.688-.441.113-.75.512-.75.968v1.262h-2v-1.262c0-.456-.309-.854-.75-.968-.606-.156-1.18-.388-1.706-.688-.391-.223-.884-.158-1.202.162l-1.342 1.342-1.586-1.586 1.342-1.342c.318-.318.385-.811.162-1.202-.3-.526-.531-1.1-.688-1.706-.115-.442-.512-.75-.968-.75h-1.262z"/><path d="m48 33c2.757 0 5-2.243 5-5s-2.243-5-5-5-5 2.243-5 5 2.243 5 5 5zm0-8c1.654 0 3 1.346 3 3s-1.346 3-3 3-3-1.346-3-3 1.346-3 3-3z"/><path d="m38 15h20c.553 0 1-.448 1-1v-8c0-.552-.447-1-1-1h-20c-.553 0-1 .448-1 1v8c0 .552.447 1 1 1zm1-8h18v6h-18z"/></svg>